<svg viewBox="0 0 53 54" version="1.1" xmlns="http://www.w3.org/2000/svg" xmlns:xlink="http://www.w3.org/1999/xlink">
    <polygon transform="translate(-6.000000, -6.000000)" id="Rectangle" points="36 9 36 10 38 10 38 11 39 11 40 11 41 11 41 10 42 10 43 10 43 9 45 9 45 6 48 6 48 7 48.9777218 6.97772176 49 8 50.0098499 8.00984987 50 9 51 9 51 11 52 11 52 12 56 15 56 18 57 18 57 19 58 19 58 22 56 22 56 23 53 23 53 24 46 24 46 25 45 25 45 30 47 30 47 31 48 31 48 34 49 34 49 33 50.0056797 32.9706672 50 28 51 28 51 26 52 26 52 25 54 25 54 26 53 26 53 27 52 27 52 28 54 28 54 26 55 26 55 25 56 25 56 24 58 24 58 26 59 26 59 35.9971384 58 36 58 38 57 38 57 40 56 40 56 41 55 41 55 42 53 42 53 43 49 43 49 42 47 42 47 41 46 41 46 40 45 40 45 43 46 43 46 46 47 46 47 50 48 50 48 56 49 56 49 57 50.0487304 57.0487304 50 58 51 58 51 60 40 60 40 59 39 59 39 57 38 57 38 56 37 56 37 53 36 53 36 52 35 52 35 51 34 51 34 50 30 50 30 51 29 51 29.0246585 51.9753415 28 52 28.0122994 52.9877006 27 53 27.0025421 53.9974579 26 54 26.0271866 54.9728134 25 55 25 56 25 57 24 57 24 58 25 58 25 60 12 60 12 57 13 57 13 54 14 54 14 51 15 51 15 49 11 49 11 48 9 48 9 47 8 47 8 46 7 46 7 44 6 44 6 39 7 37 8 37 8.00374423 36.0131191 9 36 9 35 12 35 12 37 10 37 10 39 9 39 9 42 10 42 10 44 11 44 11 45 17 45 17 44 18 43 20 43 20 41 21 41 21 40 22 40 22 38 23 38 23 36 24 36 24 34 25 34 25 32 26 32 26 30 27 30 27 27 28 27 28 24 29 24 29 22 30 22 30 20 31 20 30.9415284 17.9758136 32 18 32 16 33 16 32.9556841 15.0249992 32 15 32 9"></polygon>
</svg>